<svg width="40" height="40" viewBox="0 0 40 40" fill="none" xmlns="http://www.w3.org/2000/svg">
<path d="M24.6571 10.5936H2.73926V17.8996H24.6571V10.5936Z" fill="black"/>
<path d="M22.2835 0H0.365723V7.30593H22.2835V0Z" fill="black"/>
<path d="M16.0731 21.1871H0V28.4931H12.2374C12.6027 25.7533 14.0639 23.1963 16.0731 21.1871Z" fill="black"/>
<path d="M12.055 31.9634H1.46143V39.2694H15.5254C13.5162 37.2602 12.4203 34.7032 12.055 31.9634Z" fill="black"/>
<path d="M24.6574 40C29.9028 40 34.1551 35.7477 34.1551 30.5023C34.1551 25.2569 29.9028 21.0046 24.6574 21.0046C19.4119 21.0046 15.1597 25.2569 15.1597 30.5023C15.1597 35.7477 19.4119 40 24.6574 40Z" fill="black"/>
</svg>
