<?xml version="1.0" encoding="utf-8"?>
<!-- Generator: Adobe Illustrator 23.0.1, SVG Export Plug-In . SVG Version: 6.00 Build 0)  -->
<svg version="1.1" id="Layer_1" xmlns="http://www.w3.org/2000/svg" xmlns:xlink="http://www.w3.org/1999/xlink" x="0px" y="0px"
	 viewBox="0 0 40.1 40.1" style="enable-background:new 0 0 40.1 40.1;" xml:space="preserve">
<style type="text/css">
	.st0{fill:#4099DA;}
</style>
<g>
	<g>
		<polygon class="st0" points="21.8,9 21.8,14.8 27.7,14.8 		"/>
		<polygon class="st0" points="20.1,16.5 20.1,9 12.3,9 12.3,30.8 27.8,30.8 27.8,16.5 		"/>
	</g>
	<g>
		<path class="st0" d="M20,2.3c4.7,0,9.2,1.8,12.5,5.2s5.2,7.8,5.2,12.5c0,4.7-1.8,9.2-5.2,12.5c-3.4,3.4-7.8,5.2-12.5,5.2
			S10.9,36,7.5,32.6C4.1,29.2,2.3,24.8,2.3,20c0-4.7,1.8-9.2,5.2-12.5S15.3,2.3,20,2.3 M20,0C9,0,0,9,0,20c0,11.1,9,20,20,20
			c11.1,0,20-9,20-20C40.1,9,31.1,0,20,0L20,0z"/>
	</g>
</g>
</svg>
