<svg width="40" height="40" viewBox="0 0 40 40" fill="none" xmlns="http://www.w3.org/2000/svg">
<g clip-path="url(#clip0)">
<rect width="40" height="40" fill="white"/>
<path d="M31.4646 37C33.2208 37 34.6445 35.5763 34.6445 33.82C34.6445 32.0638 33.2208 30.6401 31.4646 30.6401C29.7084 30.6401 28.2847 32.0638 28.2847 33.82C28.2847 35.5763 29.7084 37 31.4646 37Z" fill="black"/>
<path d="M11.3801 37C13.1363 37 14.56 35.5763 14.56 33.82C14.56 32.0638 13.1363 30.6401 11.3801 30.6401C9.62389 30.6401 8.2002 32.0638 8.2002 33.82C8.2002 35.5763 9.62389 37 11.3801 37Z" fill="black"/>
<path d="M21.4226 5.36761H0V23.1085H21.4226V5.36761Z" fill="black"/>
<path d="M35.3138 15.2423C34.3096 13.736 32.4686 12.7318 30.6276 12.7318H24.2678V23.1086V25.9538H2.84521V32.4811H6.19249C6.86195 30.138 8.87031 28.4643 11.3808 28.4643C13.8912 28.4643 15.8996 30.138 16.569 32.4811H26.1088C26.7782 30.138 28.7866 28.4643 31.2971 28.4643C33.8075 28.4643 35.8159 30.138 36.4853 32.4811H40V27.9622V25.9538V22.6065L35.3138 15.2423ZM27.4477 22.7738V15.9118H30.9623C31.4644 15.9118 31.9665 16.2465 32.3012 16.5813L36.1506 22.7738H27.4477Z" fill="black"/>
</g>
<defs>
<clipPath id="clip0">
<rect width="40" height="40" fill="white"/>
</clipPath>
</defs>
</svg>
