<?xml version="1.0" encoding="utf-8"?>
<!-- Generator: Adobe Illustrator 23.0.1, SVG Export Plug-In . SVG Version: 6.00 Build 0)  -->
<svg version="1.1" id="Layer_1" xmlns="http://www.w3.org/2000/svg" xmlns:xlink="http://www.w3.org/1999/xlink" x="0px" y="0px"
	 viewBox="0 0 40.1 40.1" style="enable-background:new 0 0 40.1 40.1;" xml:space="preserve">
<style type="text/css">
	.st0{display:none;}
	.st1{display:inline;}
	.st2{fill:#4099DA;}
</style>
<g class="st0">
	<g class="st1">
		<polygon class="st2" points="21.8,9 21.8,14.8 27.7,14.8 		"/>
		<polygon class="st2" points="20.1,16.5 20.1,9 12.3,9 12.3,30.8 27.8,30.8 27.8,16.5 		"/>
	</g>
	<g class="st1">
		<path class="st2" d="M20,2.3c4.7,0,9.2,1.8,12.5,5.2s5.2,7.8,5.2,12.5c0,4.7-1.8,9.2-5.2,12.5c-3.4,3.4-7.8,5.2-12.5,5.2
			S10.9,36,7.5,32.6C4.1,29.2,2.3,24.8,2.3,20c0-4.7,1.8-9.2,5.2-12.5S15.3,2.3,20,2.3 M20,0C9,0,0,9,0,20c0,11.1,9,20,20,20
			c11.1,0,20-9,20-20C40.1,9,31.1,0,20,0L20,0z"/>
	</g>
</g>
<g>
	<circle class="st2" cx="27.2" cy="28.3" r="1.9"/>
	<circle class="st2" cx="15.2" cy="28.3" r="1.9"/>
	<rect x="8.4" y="11.3" class="st2" width="12.8" height="10.6"/>
	<path class="st2" d="M29.5,17.2c-0.6-0.9-1.7-1.5-2.8-1.5h-3.8v6.2v1.7H10.1v3.9h2c0.4-1.4,1.6-2.4,3.1-2.4s2.7,1,3.1,2.4h5.7
		c0.4-1.4,1.6-2.4,3.1-2.4c1.5,0,2.7,1,3.1,2.4h2.1v-2.7v-1.2v-2L29.5,17.2z M24.8,21.7v-4.1h2.1c0.3,0,0.6,0.2,0.8,0.4l2.3,3.7
		H24.8z"/>
	<g>
		<path class="st2" d="M20,2.3c4.7,0,9.2,1.8,12.5,5.2c3.4,3.4,5.2,7.8,5.2,12.5c0,4.7-1.8,9.2-5.2,12.5c-3.4,3.4-7.8,5.2-12.5,5.2
			S10.9,36,7.5,32.6C4.1,29.2,2.3,24.8,2.3,20c0-4.7,1.8-9.2,5.2-12.5S15.3,2.3,20,2.3 M20,0C9,0,0,9,0,20c0,11.1,9,20,20,20
			c11.1,0,20-9,20-20C40.1,9,31.1,0,20,0L20,0z"/>
	</g>
</g>
</svg>
