<svg width="40" height="40" viewBox="0 0 40 40" fill="none" xmlns="http://www.w3.org/2000/svg">
<g clip-path="url(#clip0)">
<rect width="40" height="40" fill="white"/>
<path d="M27.6793 6H13.5021C6.07595 6 0 12.7512 0 20.8526C0 28.9541 6.07595 35.7053 13.5021 35.7053V30.6419H27.6793C34.4304 30.6419 40 25.0721 40 18.3209C40 11.5697 34.4304 6 27.6793 6ZM11.9831 21.6965C10.2954 21.6965 9.11392 20.5151 9.11392 18.8273C9.11392 17.1395 10.2954 15.958 11.9831 15.958C13.6709 15.958 14.8523 17.1395 14.8523 18.8273C14.8523 20.3463 13.6709 21.6965 11.9831 21.6965ZM20.9283 21.6965C19.2405 21.6965 18.0591 20.5151 18.0591 18.8273C18.0591 17.1395 19.2405 15.958 20.9283 15.958C22.616 15.958 23.7975 17.1395 23.7975 18.8273C23.7975 20.3463 22.616 21.6965 20.9283 21.6965ZM30.0422 21.6965C28.3544 21.6965 27.173 20.5151 27.173 18.8273C27.173 17.1395 28.3544 15.958 30.0422 15.958C31.73 15.958 32.9114 17.1395 32.9114 18.8273C32.9114 20.3463 31.5612 21.6965 30.0422 21.6965Z" fill="black"/>
</g>
<defs>
<clipPath id="clip0">
<rect width="40" height="40" fill="white"/>
</clipPath>
</defs>
</svg>
