<?xml version="1.0" encoding="utf-8"?>
<!-- Generator: Adobe Illustrator 23.0.1, SVG Export Plug-In . SVG Version: 6.00 Build 0)  -->
<svg version="1.1" id="Layer_1" xmlns="http://www.w3.org/2000/svg" xmlns:xlink="http://www.w3.org/1999/xlink" x="0px" y="0px"
	 viewBox="0 0 40.1 40.1" style="enable-background:new 0 0 40.1 40.1;" xml:space="preserve">
<style type="text/css">
	.st0{display:none;}
	.st1{display:inline;}
	.st2{fill:#4099DA;}
	.st3{display:inline;fill:#4099DA;}
</style>
<g class="st0">
	<g class="st1">
		<polygon class="st2" points="21.8,9 21.8,14.8 27.7,14.8 		"/>
		<polygon class="st2" points="20.1,16.5 20.1,9 12.3,9 12.3,30.8 27.8,30.8 27.8,16.5 		"/>
	</g>
	<g class="st1">
		<path class="st2" d="M20,2.3c4.7,0,9.2,1.8,12.5,5.2s5.2,7.8,5.2,12.5c0,4.7-1.8,9.2-5.2,12.5c-3.4,3.4-7.8,5.2-12.5,5.2
			S10.9,36,7.5,32.6C4.1,29.2,2.3,24.8,2.3,20c0-4.7,1.8-9.2,5.2-12.5S15.3,2.3,20,2.3 M20,0C9,0,0,9,0,20c0,11.1,9,20,20,20
			c11.1,0,20-9,20-20C40.1,9,31.1,0,20,0L20,0z"/>
	</g>
</g>
<g class="st0">
	<circle class="st3" cx="27.2" cy="28.3" r="1.9"/>
	<circle class="st3" cx="15.2" cy="28.3" r="1.9"/>
	<rect x="8.4" y="11.3" class="st3" width="12.8" height="10.6"/>
	<path class="st3" d="M29.5,17.2c-0.6-0.9-1.7-1.5-2.8-1.5h-3.8v6.2v1.7H10.1v3.9h2c0.4-1.4,1.6-2.4,3.1-2.4s2.7,1,3.1,2.4h5.7
		c0.4-1.4,1.6-2.4,3.1-2.4c1.5,0,2.7,1,3.1,2.4h2.1v-2.7v-1.2v-2L29.5,17.2z M24.8,21.7v-4.1h2.1c0.3,0,0.6,0.2,0.8,0.4l2.3,3.7
		H24.8z"/>
	<g class="st1">
		<path class="st2" d="M20,2.3c4.7,0,9.2,1.8,12.5,5.2c3.4,3.4,5.2,7.8,5.2,12.5c0,4.7-1.8,9.2-5.2,12.5c-3.4,3.4-7.8,5.2-12.5,5.2
			S10.9,36,7.5,32.6C4.1,29.2,2.3,24.8,2.3,20c0-4.7,1.8-9.2,5.2-12.5S15.3,2.3,20,2.3 M20,0C9,0,0,9,0,20c0,11.1,9,20,20,20
			c11.1,0,20-9,20-20C40.1,9,31.1,0,20,0L20,0z"/>
	</g>
</g>
<g class="st0">
	<g class="st1">
		<g>
			<polygon class="st2" points="25.2,9.4 21,9.4 21,1 19,1 19,9.4 14.8,9.4 14.8,12.2 25.2,12.2 			"/>
			<path class="st2" d="M26.2,13.9H13.9c-3.9,2.3-6.2,7-6,12.9h24.3C32.4,20.9,30.1,16.3,26.2,13.9z"/>
			<path class="st2" d="M20,32c2.1,0,3.8-1.5,4.2-3.5h-8.4C16.2,30.5,18,32,20,32z"/>
		</g>
		<g>
			<path class="st2" d="M20,2.3c4.7,0,9.2,1.8,12.5,5.2c3.4,3.4,5.2,7.8,5.2,12.5c0,4.7-1.8,9.2-5.2,12.5c-3.4,3.4-7.8,5.2-12.5,5.2
				S10.9,36,7.5,32.6C4.1,29.2,2.3,24.8,2.3,20c0-4.7,1.8-9.2,5.2-12.5C10.9,4.1,15.3,2.3,20,2.3 M20,0C9,0,0,9,0,20
				c0,11.1,9,20,20,20s20-9,20-20C40.1,9,31.1,0,20,0L20,0z"/>
		</g>
	</g>
</g>
<g class="st0">
	<g class="st1">
		<path class="st2" d="M20,2.3c4.7,0,9.2,1.8,12.5,5.2s5.2,7.8,5.2,12.5s-1.8,9.2-5.2,12.5c-3.4,3.4-7.8,5.2-12.5,5.2
			S10.9,36,7.5,32.6C4.1,29.2,2.3,24.8,2.3,20s1.8-9.2,5.2-12.5S15.3,2.3,20,2.3 M20,0C9,0,0,9,0,20s9,20,20,20s20-9,20-20
			S31.1,0,20,0L20,0z"/>
	</g>
	<g class="st1">
		<g>
			<path class="st2" d="M20.3,13.6h-0.5c-3.1,0-5.6,2.5-5.6,5.6V28l1.6,0.7v2.1h8.6v-2.2l1.5-0.7v-8.8
				C25.9,16.1,23.4,13.6,20.3,13.6z"/>
		</g>
		<circle class="st2" cx="20" cy="9.4" r="2.6"/>
	</g>
</g>
<g>
	<g>
		<path class="st2" d="M12.9,18.7c0.5,0,0.9-0.3,0.9-0.8c0-0.5-0.4-0.8-0.9-0.8c-0.5,0-0.9,0.3-0.9,0.8C12,18.4,12.3,18.7,12.9,18.7
			z"/>
		<path class="st2" d="M12.9,20c-0.9,0-1.6,0.6-1.6,1.5c0,0.8,0.7,1.4,1.6,1.4c0.9,0,1.6-0.6,1.6-1.4C14.5,20.6,13.8,20,12.9,20z"/>
		<path class="st2" d="M15.2,12.7h-4.7c-2.2,0-4,1.8-4,4v6.9c0,2.2,1.8,4,4,4h4.7c2.2,0,4-1.8,4-4v-6.9
			C19.2,14.5,17.4,12.7,15.2,12.7z M12.9,24.4c-1.8,0-3.2-1.2-3.2-2.9c0-1,0.5-1.8,1.3-2.3c-0.3-0.4-0.5-0.8-0.5-1.3
			c0-1.2,1-2.1,2.4-2.1c1.4,0,2.4,0.9,2.4,2.1c0,0.5-0.2,1-0.5,1.3c0.8,0.5,1.3,1.3,1.3,2.3C16.1,23.2,14.7,24.4,12.9,24.4z"/>
	</g>
	<path class="st2" d="M29.6,12.7h-4.7c-2.2,0-4,1.8-4,4v6.9c0,2.2,1.8,4,4,4h4.7c2.2,0,4-1.8,4-4v-6.9
		C33.5,14.5,31.8,12.7,29.6,12.7z M30.1,25.6c-0.2,0-0.4,0.1-0.5,0.1h-1.2c-0.3-0.3-0.9-0.5-1.7-0.5c-0.3,0-0.6,0-0.8,0l1.7-2.7
		h-3.1v-1.5h5.7L28.3,24C29.2,24.3,29.8,24.8,30.1,25.6z M29.9,18.8h-6l2.8-2.9c0.5-0.5,0.9-1,1.2-1.4h1.6c0.1,0,0.1,0,0.2,0
		c-0.3,0.6-0.8,1.3-1.6,2.1l-0.7,0.8l3,0L29.9,18.8z"/>
	<g>
		<path class="st2" d="M20,2.3c4.7,0,9.2,1.8,12.5,5.2c3.4,3.4,5.2,7.8,5.2,12.5c0,4.7-1.8,9.2-5.2,12.5c-3.4,3.4-7.8,5.2-12.5,5.2
			S10.9,36,7.5,32.6C4.1,29.2,2.3,24.8,2.3,20c0-4.7,1.8-9.2,5.2-12.5S15.3,2.3,20,2.3 M20,0C9,0,0,9,0,20c0,11.1,9,20,20,20
			c11.1,0,20-9,20-20C40.1,9,31.1,0,20,0L20,0z"/>
	</g>
</g>
</svg>
