<svg width="40" height="40" viewBox="0 0 40 40" fill="none" xmlns="http://www.w3.org/2000/svg">
<g clip-path="url(#clip0)">
<rect width="40" height="40" fill="white"/>
<path d="M9.4466 17.6917C10.1846 17.6917 10.775 17.2489 10.775 16.5108C10.775 15.7728 10.1846 15.33 9.4466 15.33C8.70858 15.33 8.11816 15.7728 8.11816 16.5108C8.11816 17.2489 8.56097 17.6917 9.4466 17.6917Z" fill="black"/>
<path d="M9.44662 19.6105C8.11819 19.6105 7.08496 20.4962 7.08496 21.8246C7.08496 23.0054 8.11819 23.891 9.44662 23.891C10.7751 23.891 11.8083 23.0054 11.8083 21.8246C11.8083 20.4962 10.7751 19.6105 9.44662 19.6105Z" fill="black"/>
<path d="M12.8415 8.83545H5.90415C2.65687 8.83545 0 11.4923 0 14.7396V24.9243C0 28.1715 2.65687 30.8284 5.90415 30.8284H12.8415C16.0888 30.8284 18.7457 28.1715 18.7457 24.9243V14.7396C18.7457 11.4923 16.0888 8.83545 12.8415 8.83545ZM9.44664 26.1051C6.78977 26.1051 4.72332 24.3338 4.72332 21.8246C4.72332 20.3485 5.46134 19.1677 6.64217 18.4297C6.19936 17.8393 5.90415 17.2489 5.90415 16.5108C5.90415 14.7396 7.38019 13.4112 9.44664 13.4112C11.5131 13.4112 12.9891 14.7396 12.9891 16.5108C12.9891 17.2489 12.6939 17.9869 12.2511 18.4297C13.4319 19.1677 14.17 20.3485 14.17 21.8246C14.17 24.3338 12.1035 26.1051 9.44664 26.1051Z" fill="black"/>
<path d="M34.0959 8.83545H27.1585C23.9113 8.83545 21.2544 11.4923 21.2544 14.7396V24.9243C21.2544 28.1715 23.9113 30.8284 27.1585 30.8284H34.0959C37.3432 30.8284 40.0001 28.1715 40.0001 24.9243V14.7396C39.8525 11.4923 37.3432 8.83545 34.0959 8.83545ZM34.8339 27.8763C34.5387 27.8763 34.2435 28.0239 34.0959 28.0239H32.3247C31.8819 27.5811 30.9962 27.2859 29.8154 27.2859C29.3726 27.2859 28.9298 27.2859 28.6346 27.2859L31.1438 23.3006H26.5681V21.0866H34.9815L32.1771 25.5147C33.5055 25.9575 34.3911 26.6955 34.8339 27.8763ZM34.5387 17.8393H25.6825L29.8154 13.5588C30.5534 12.8208 31.1438 12.0827 31.5867 11.4923H33.9483C34.0959 11.4923 34.0959 11.4923 34.2435 11.4923C33.8007 12.3779 33.0627 13.4112 31.8819 14.592L30.8486 15.7728H35.2768L34.5387 17.8393Z" fill="black"/>
</g>
<defs>
<clipPath id="clip0">
<rect width="40" height="40" fill="white"/>
</clipPath>
</defs>
</svg>
